<?xml version="1.0" standalone="no"?><!DOCTYPE svg PUBLIC "-//W3C//DTD SVG 1.1//EN" "http://www.w3.org/Graphics/SVG/1.1/DTD/svg11.dtd"><svg class="icon" width="24px" height="24.00px" viewBox="0 0 1024 1024" version="1.1" xmlns="http://www.w3.org/2000/svg"><path fill="#FF69B4" d="M775.488 1024H248.512C217.344 1024 192 1000.32 192 971.008V52.992C192 23.744 217.344 0 248.512 0h526.976c31.168 0 56.512 23.68 56.512 52.992v918.08c0 29.248-25.344 52.928-56.512 52.928zM512 971.072c20.8 0 37.632-15.808 37.632-35.328 0-19.52-16.832-35.328-37.632-35.328-20.8 0-37.632 15.808-37.632 35.328 0 19.52 16.832 35.328 37.632 35.328zM775.488 105.92H248.512v741.504h526.976V105.92zM576 576h128l-192 192-192-192h128V256h128v320z"  /></svg>