<?xml version="1.0" standalone="no"?><!DOCTYPE svg PUBLIC "-//W3C//DTD SVG 1.1//EN" "http://www.w3.org/Graphics/SVG/1.1/DTD/svg11.dtd"><svg class="icon" width="200px" height="200.00px" viewBox="0 0 1024 1024" version="1.1" xmlns="http://www.w3.org/2000/svg"><path fill="#2c2c2c" d="M401.066667 469.333333H110.933333c-34.133333 0-68.266667-34.133333-68.266666-68.266666V119.466667c0-34.133333 25.6-68.266667 68.266666-68.266667h290.133334c34.133333 0 68.266667 34.133333 68.266666 68.266667v281.6c0 34.133333-34.133333 68.266667-68.266666 68.266666z m-273.066667-85.333333h264.533333v-256H128v256zM913.066667 981.333333H622.933333c-34.133333 0-68.266667-34.133333-68.266666-68.266666V631.466667c0-34.133333 25.6-68.266667 68.266666-68.266667h290.133334c34.133333 0 68.266667 34.133333 68.266666 68.266667v281.6c0 34.133333-34.133333 68.266667-68.266666 68.266666z m-273.066667-85.333333h264.533333v-256H640v256zM401.066667 981.333333H110.933333c-34.133333 0-68.266667-34.133333-68.266666-68.266666V631.466667c0-34.133333 25.6-68.266667 68.266666-68.266667h290.133334c34.133333 0 68.266667 34.133333 68.266666 68.266667v281.6c0 34.133333-34.133333 68.266667-68.266666 68.266666z m-273.066667-85.333333h264.533333v-256H128v256zM896 170.666667H597.333333c-25.6 0-42.666667-17.066667-42.666666-42.666667S571.733333 85.333333 597.333333 85.333333h298.666667c25.6 0 42.666667 17.066667 42.666667 42.666667s-17.066667 42.666667-42.666667 42.666667zM810.666667 384H597.333333c-25.6 0-42.666667-17.066667-42.666666-42.666667s17.066667-42.666667 42.666666-42.666666h213.333334c25.6 0 42.666667 17.066667 42.666666 42.666666s-17.066667 42.666667-42.666666 42.666667z" /></svg>