<?xml version="1.0" standalone="no"?><!DOCTYPE svg PUBLIC "-//W3C//DTD SVG 1.1//EN" "http://www.w3.org/Graphics/SVG/1.1/DTD/svg11.dtd"><svg class="icon" width="24px" height="24.00px" viewBox="0 0 1024 1024" version="1.1" xmlns="http://www.w3.org/2000/svg"><path fill="#FF69B4" d="M0 819.2c0 37.546667 30.72 68.266667 68.266667 68.266667h887.466666c37.546667 0 68.266667-30.72 68.266667-68.266667V375.466667H0v443.733333z m638.293333-341.333333h126.293334c30.72 0 51.2 6.826667 64.853333 23.893333 13.653333 13.653333 23.893333 37.546667 23.893333 64.853333 0 27.306667-6.826667 47.786667-23.893333 64.853334-13.653333 13.653333-37.546667 23.893333-64.853333 23.893333h-88.746667v119.466667h-37.546667V477.866667z m-146.773333 0h37.546667v290.133333h-37.546667V477.866667z m-279.893333 0l81.92 252.586666 85.333333-252.586666h40.96l-102.4 290.133333H273.066667L170.666667 477.866667h40.96zM955.733333 136.533333H68.266667C30.72 136.533333 0 167.253333 0 204.8v102.4h1024V204.8c0-37.546667-30.72-68.266667-68.266667-68.266667zM273.066667 262.826667c0 6.826667-3.413333 10.24-10.24 10.24H112.64c-6.826667 0-10.24-3.413333-10.24-10.24v-17.066667c0-3.413333 3.413333-6.826667 10.24-6.826667h153.6c3.413333 0 6.826667 3.413333 6.826667 6.826667v17.066667z m525.653333 341.333333c10.24-10.24 13.653333-23.893333 13.653333-40.96s-3.413333-30.72-13.653333-40.96c-10.24-10.24-27.306667-13.653333-47.786667-13.653333h-75.093333V614.4H750.933333c20.48 3.413333 37.546667-3.413333 47.786667-10.24z" /></svg>