<?xml version="1.0" standalone="no"?><!DOCTYPE svg PUBLIC "-//W3C//DTD SVG 1.1//EN" "http://www.w3.org/Graphics/SVG/1.1/DTD/svg11.dtd"><svg class="icon" width="24px" height="24.00px" viewBox="0 0 1024 1024" version="1.1" xmlns="http://www.w3.org/2000/svg"><path fill="#FF69B4" d="M512.001955 23.458171C235.717479 23.458171 11.710515 247.456339 11.710515 523.729086c0 276.272747 224.006964 500.270914 500.29144 500.270914 276.284476 0 500.289485-223.998167 500.289485-500.270914 0-276.272747-224.005987-500.270914-500.289485-500.270914zm0 906.741399C287.505301 930.19957 105.515832 748.216942 105.515832 523.729086c0-224.486879 181.988492-406.470484 406.486123-406.470484C736.494699 117.258601 918.487101 299.242206 918.487101 523.729086 918.486123 748.215965 736.495676 930.19957 512.001955 930.19957ZM668.388786 528.964167C668.388786 485.777919 703.396441 450.770263 746.58269 450.770263 789.768939 450.770263 824.776594 485.777919 824.776594 528.964167 824.776594 572.150416 789.768939 607.158072 746.58269 607.158072 703.396441 607.158072 668.388786 572.150416 668.388786 528.964167m-234.581712 0c0-43.186249 35.007655-78.193904 78.193904-78.193904 43.186249 0 78.193904 35.007655 78.193904 78.193904 0 43.186249-35.007655 78.193904-78.193904 78.193904-43.186249 0-78.193904-35.007655-78.193904-78.193904m-234.581712 0c0-43.186249 35.008877-78.193904 78.193904-78.193904 43.186249 0 78.193904 35.007655 78.193904 78.193904 0 43.186249-35.007655 78.193904-78.193904 78.193904-43.185027 0-78.193904-35.007655-78.193904-78.193904" /></svg>