<?xml version="1.0" standalone="no"?><!DOCTYPE svg PUBLIC "-//W3C//DTD SVG 1.1//EN" "http://www.w3.org/Graphics/SVG/1.1/DTD/svg11.dtd"><svg class="icon" width="24px" height="24.00px" viewBox="0 0 1024 1024" version="1.1" xmlns="http://www.w3.org/2000/svg"><path fill="#ffffff" d="M848.770567 892.10619c0 18.29371-3.645949 35.372103-11.001811 51.107252-7.355862 15.735149-17.398214 29.679305-30.191018 41.768505-12.792804 12.0892-27.824349 21.619839-45.03067 28.591917-17.206321 6.972078-35.691923 10.426135-55.456806 10.426135L316.973702 1024c-19.764882 0-38.250484-3.454057-55.456806-10.426135-17.206321-6.972078-32.237866-16.502717-45.03067-28.591917-12.792804-12.0892-22.899119-26.033356-30.191018-41.768505-7.291898-15.735149-11.001811-32.749578-11.001811-51.107252l0-759.188956c0-18.29371 3.645949-35.500031 11.001811-51.618964 7.355862-16.118933 17.398214-30.191018 30.191018-42.280217 12.792804-12.0892 27.824349-21.619839 45.03067-28.591917C278.723218 3.454057 297.20882 0 316.973702 0l390.052595 0c19.764882 0 38.250484 3.454057 55.456806 10.426135 17.206321 6.972078 32.237866 16.502717 45.03067 28.591917 12.792804 12.0892 22.899119 26.161284 30.191018 42.280217 7.355862 16.118933 11.001811 33.325255 11.001811 51.618964L848.706603 892.10619 848.770567 892.10619zM759.796614 185.687551 263.115997 185.687551l0 652.624898 496.616653 0L759.796614 185.687551 759.796614 185.687551zM511.424324 869.079143c-15.351365 0-28.719845 5.500906-40.105441 16.502717-11.385596 11.001811-17.014429 24.562184-17.014429 40.681117 0 15.415329 5.692798 28.719845 17.014429 40.105441 11.385596 11.385596 24.690112 17.014429 40.105441 17.014429 16.118933 0 29.679305-5.692798 40.681117-17.014429 11.001811-11.385596 16.502717-24.690112 16.502717-40.105441 0-16.118933-5.500906-29.679305-16.502717-40.681117C541.103629 874.516085 527.543257 869.079143 511.424324 869.079143L511.424324 869.079143zM599.374852 92.236117c0-5.88469-1.854957-10.426135-5.500906-13.752264-3.645949-3.326129-7.675682-4.92523-12.0892-4.92523L442.215254 73.558623c-3.645949 0-7.48379 1.663065-11.513524 4.92523C426.671997 81.809982 424.625148 86.415391 424.625148 92.236117c0 5.88469 1.854957 10.426135 5.500906 13.752264 3.645949 3.326129 7.675682 4.92523 12.0892 4.92523l139.569492 0c4.413517 0 8.443251-1.663065 12.0892-4.92523C597.519895 102.726217 599.374852 98.120807 599.374852 92.236117L599.374852 92.236117z" /></svg>