<?xml version="1.0" standalone="no"?><!DOCTYPE svg PUBLIC "-//W3C//DTD SVG 1.1//EN" "http://www.w3.org/Graphics/SVG/1.1/DTD/svg11.dtd"><svg class="icon" width="200px" height="199.80px" viewBox="0 0 1025 1024" version="1.1" xmlns="http://www.w3.org/2000/svg"><path fill="#2c2c2c" d="M835.759104 445.734656 835.759104 866.270976C835.759104 891.438336 814.971904 911.867136 789.446144 911.867136L643.538944 911.867136 643.538944 710.305536C643.538944 672.950016 613.149184 642.560256 575.793664 642.560256L447.604224 642.560256C410.248704 642.560256 379.858944 672.950016 379.858944 710.305536L379.858944 911.867136 233.913344 911.867136C208.387584 911.867136 187.600384 891.438336 187.600384 866.270976L187.600384 442.680576 511.688704 123.602176 835.956224 442.895616C835.838464 443.827456 835.759104 444.769536 835.759104 445.734656M991.025664 531.077376 528.057344 75.236096C519.007744 66.334976 504.372224 66.334976 495.320064 75.236096L148.158464 417.070336 148.053504 417.198336 32.374784 531.100416C23.343104 540.004096 23.343104 554.424576 32.374784 563.328256 41.426944 572.231936 56.080384 572.231936 65.112064 563.328256L141.328384 488.274176 141.328384 866.270976C141.328384 916.562176 182.861824 957.440256 233.933824 957.440256L379.858944 957.440256 411.858944 957.440256 428.626944 957.440256 428.626944 908.800256 428.498944 908.800256 428.498944 710.305536C428.498944 699.771136 437.069824 691.200256 447.604224 691.200256L575.793664 691.200256C586.328064 691.200256 594.898944 699.771136 594.898944 710.305536L594.898944 860.746496 595.003904 860.746496 595.003904 957.440256 611.538944 957.440256 639.263744 957.440256 643.538944 957.440256 643.538944 957.419776 789.446144 957.419776C840.518144 957.419776 882.051584 916.562176 882.051584 866.250496L882.051584 488.281856 958.267904 563.328256C962.773504 567.769856 968.694784 569.989376 974.636544 569.989376 980.557824 569.989376 986.479104 567.769856 991.005184 563.328256 1000.057344 554.424576 1000.057344 540.004096 991.025664 531.077376" /></svg>