<?xml version="1.0" standalone="no"?><!DOCTYPE svg PUBLIC "-//W3C//DTD SVG 1.1//EN" "http://www.w3.org/Graphics/SVG/1.1/DTD/svg11.dtd"><svg class="icon" width="200px" height="195.98px" viewBox="0 0 1045 1024" version="1.1" xmlns="http://www.w3.org/2000/svg"><path fill="#d81e06" d="M350.603636 791.027071c13.420606 0 26.130101 2.469495 38.128485 7.408485 12.011313 4.93899 22.600404 11.830303 31.780202 20.64808 9.179798 8.830707 16.239192 19.238788 21.178182 31.250101 4.93899 11.998384 7.408485 24.707879 7.408485 38.128485 0 13.420606-2.469495 26.130101-7.408485 38.128485-4.93899 11.998384-12.011313 22.419394-21.178182 31.250101-9.179798 8.830707-19.768889 15.890101-31.780202 21.178182-11.998384 5.30101-24.707879 7.951515-38.128485 7.951515-14.118788 0-27.009293-2.650505-38.658585-7.951515-11.649293-5.288081-22.070303-12.347475-31.237172-21.178182-9.179798-8.830707-16.239192-19.238788-21.191111-31.250101-4.93899-11.998384-7.408485-24.707879-7.408485-38.128485 0-13.420606 2.469495-26.130101 7.408485-38.128485 4.93899-11.998384 12.011313-22.419394 21.191111-31.250101 9.179798-8.817778 19.587879-15.709091 31.237172-20.64808 11.649293-4.93899 24.526869-7.408485 38.658585-7.408485z m440.604445 2.120404c13.420606 0 26.298182 2.469495 38.658586 7.408485 12.360404 4.93899 22.949495 11.830303 31.767272 20.66101 8.830707 8.830707 15.890101 19.238788 21.191112 31.250101 5.288081 11.998384 7.938586 24.720808 7.938585 38.128485 0 13.420606-2.650505 26.130101-7.938585 38.128484-5.30101 11.998384-12.360404 22.419394-21.191112 31.250101-8.817778 8.817778-19.419798 15.890101-31.767272 21.178182-12.360404 5.288081-25.23798 7.938586-38.658586 7.938586-13.407677 0-26.130101-2.650505-38.128485-7.938586-11.998384-5.30101-22.419394-12.360404-31.250101-21.178182-8.830707-8.830707-15.890101-19.238788-21.178182-31.250101-5.30101-11.998384-7.938586-24.707879-7.938586-38.128484 0-13.420606 2.650505-26.130101 7.938586-38.128485 5.288081-11.998384 12.347475-22.419394 21.178182-31.250101 8.830707-8.830707 19.238788-15.709091 31.250101-20.66101 11.998384-4.93899 24.720808-7.408485 38.128485-7.408485z m177.945858-601.61293c19.768889 0 35.128889 2.650505 46.08 7.938586 10.951111 5.30101 18.708687 11.830303 23.298586 19.600808 4.589899 7.770505 6.710303 16.058182 6.348283 24.888889-0.349091 8.830707-1.590303 16.420202-3.710707 22.768485-2.120404 6.348283-6.529293 19.419798-13.239596 39.188687s-14.299798 41.490101-22.768485 65.137778a8740.240808 8740.240808 0 0 0-24.888889 70.438788c-8.119596 23.298586-14.299798 41.658182-18.540606 55.078788-9.179798 28.250505-20.829091 47.838384-34.947879 58.776565-14.118788 10.951111-31.431111 16.420202-51.898181 16.420202H318.823434l15.890101 95.327677h533.811718c33.900606 0 50.83798 14.480808 50.837979 43.429495 0 14.118788-3.348687 26.298182-10.071919 36.538182-6.710303 10.24-19.949899 15.36-39.718788 15.36H314.582626c-14.118788 0-25.949091-3.180606-35.47798-9.541818-9.528889-6.348283-17.467475-14.648889-23.828686-24.888889-6.348283-10.24-11.481212-21.359192-15.36-33.357576-3.878788-12.011313-6.878384-23.298586-8.998788-33.900606-0.711111-4.240808-2.650505-14.480808-5.831111-30.72-3.180606-16.239192-7.059394-36.538182-11.649293-60.89697s-9.709899-51.549091-15.36-81.55798c-5.650101-30.008889-11.300202-60.198788-16.950303-90.556767-13.420606-71.31798-28.599596-150.755556-45.53697-238.312728H56.151919c-10.589091 0-19.419798-2.650505-26.479192-7.938585-7.059394-5.288081-12.890505-11.649293-17.480404-19.070708a73.509495 73.509495 0 0 1-9.541818-23.828686c-1.758384-8.481616-2.650505-16.239192-2.650505-23.298586 0-14.118788 4.770909-25.768081 14.299798-34.960808 9.541818-9.179798 22.419394-13.769697 38.658586-13.769697h106.97697c14.118788 0 25.41899 2.120404 33.887676 6.348283 8.481616 4.240808 15.17899 9.528889 20.11798 15.890101 4.93899 6.348283 8.468687 13.071515 10.589091 20.130909 2.120404 7.059394 3.878788 13.058586 5.288081 17.997575 1.409293 5.650101 2.818586 13.588687 4.240808 23.828687 1.409293 10.24 2.818586 20.66101 4.240808 31.250101 2.120404 12.709495 4.240808 26.130101 6.348283 40.248889h724.505858z m0 0" /></svg>